<?xml version="1.0" standalone="no"?>
<!DOCTYPE svg PUBLIC "-//W3C//DTD SVG 20010904//EN"
 "http://www.w3.org/TR/2001/REC-SVG-20010904/DTD/svg10.dtd">
<svg version="1.0" xmlns="http://www.w3.org/2000/svg"
 width="201.000000pt" height="201.000000pt" viewBox="0 0 201.000000 201.000000"
 preserveAspectRatio="xMidYMid meet">
<metadata>
Created by potrace 1.14, written by Peter Selinger 2001-2017
</metadata>
<g transform="translate(0.000000,201.000000) scale(0.100000,-0.100000)"
fill="#000000" stroke="none">
<path d="M1013 1935 c-4 -51 30 -175 48 -175 24 0 5 -30 -23 -38 -41 -10 -44
-23 -15 -57 l23 -28 28 33 27 33 25 -26 c43 -47 178 -94 194 -67 5 8 -14 32
-54 67 -33 31 -67 62 -75 69 -13 12 -12 16 2 32 24 26 21 33 -9 22 -27 -11
-54 1 -54 22 0 15 -94 147 -105 148 -5 0 -11 -16 -12 -35z"/>
<path d="M1415 1650 c-7 -22 11 -96 31 -127 13 -21 12 -23 -11 -29 -30 -8 -32
-25 -4 -50 20 -18 21 -18 39 6 14 18 21 21 32 13 7 -6 32 -17 56 -24 79 -23
78 27 -2 68 -21 11 -25 18 -17 26 6 6 11 18 11 26 0 12 -3 12 -12 3 -21 -21
-32 -13 -61 42 -31 60 -53 75 -62 46z"/>
<path d="M1156 1601 c-12 -19 3 -140 20 -170 18 -31 18 -31 -4 -47 -12 -8 -22
-21 -22 -28 0 -25 27 -25 50 -1 l22 24 22 -25 c20 -23 117 -64 151 -64 8 0 15
6 15 14 0 14 -72 85 -105 103 -16 10 -17 15 -7 37 11 24 10 25 -16 20 -25 -5
-29 0 -61 65 -33 66 -54 90 -65 72z"/>
<path d="M745 1451 c-56 -16 -121 -46 -155 -71 -12 -10 -12 -11 5 -7 11 3 45
15 75 27 53 21 54 21 36 1 -10 -11 -15 -24 -12 -29 3 -6 -23 -13 -60 -17 -59
-6 -71 -11 -107 -46 -23 -21 -37 -39 -33 -39 4 0 -7 -19 -26 -42 -36 -47 -40
-48 47 8 28 18 55 13 55 -11 0 -10 5 -13 11 -9 9 5 10 -11 5 -58 -6 -56 -4
-71 13 -104 12 -21 21 -44 21 -50 0 -6 9 -19 20 -29 20 -18 21 -18 14 1 -6 17
-4 16 19 -5 14 -13 23 -29 20 -37 -3 -8 1 -14 11 -14 9 0 16 -4 16 -9 0 -5 21
-14 47 -20 58 -15 101 -37 133 -68 14 -14 32 -22 42 -20 17 5 35 -10 34 -28
-1 -5 -11 -26 -24 -46 -12 -20 -22 -41 -22 -46 0 -21 56 -119 83 -146 26 -25
28 -32 22 -80 -3 -28 -13 -83 -22 -120 -16 -67 -16 -69 4 -89 22 -21 46 -17
37 6 -5 13 95 126 111 126 16 0 151 136 167 168 10 20 25 43 33 52 27 30 17
48 -42 78 -32 15 -63 39 -70 52 -6 13 -24 30 -40 38 -15 8 -38 23 -49 34 -12
11 -35 22 -50 24 -85 15 -102 15 -114 2 -8 -8 -26 -12 -45 -10 -25 3 -33 10
-41 35 -6 22 -16 33 -32 35 -20 3 -22 8 -17 33 5 22 3 29 -9 29 -9 0 -16 -4
-16 -10 0 -5 -9 -14 -19 -20 -26 -13 -51 11 -51 50 0 23 7 32 43 49 56 27 73
26 93 -4 22 -34 35 -32 21 4 -9 25 -8 33 6 49 9 10 17 24 17 31 0 30 31 71 54
71 13 0 29 7 36 15 7 9 21 13 31 10 14 -5 17 -2 13 9 -3 9 -10 16 -14 16 -4 0
-27 18 -51 40 -24 22 -49 38 -56 36 -9 -4 -11 3 -8 22 7 34 -30 77 -74 87 -17
3 -31 11 -31 16 0 12 48 0 80 -20 14 -9 49 -40 78 -68 60 -61 77 -66 69 -23
-4 16 -2 32 3 35 6 3 10 12 10 18 -1 13 -90 77 -108 77 -6 0 -13 4 -16 9 -3 4
25 7 62 5 44 -1 60 1 47 6 -36 16 -264 9 -330 -9z m148 -112 c-5 -18 -7 -19
-21 -6 -16 17 -8 39 12 31 8 -3 12 -14 9 -25z m-173 -13 c0 -3 -4 -8 -10 -11
-5 -3 -10 -1 -10 4 0 6 5 11 10 11 6 0 10 -2 10 -4z m165 -22 c9 -10 14 -25
12 -36 -3 -10 -1 -16 4 -12 5 3 9 1 9 -5 0 -5 -4 -12 -9 -15 -12 -8 -42 4 -36
14 4 6 -19 18 -47 24 -18 3 -19 18 -2 31 25 19 49 19 69 -1z m-121 -7 c3 3 6
-3 6 -15 0 -11 -5 -24 -12 -28 -8 -5 -9 -2 -4 11 5 14 4 15 -7 7 -21 -18 -36
0 -28 33 0 3 9 1 20 -4 10 -6 21 -7 25 -4z m84 -65 c2 -7 -3 -12 -12 -12 -9 0
-16 7 -16 16 0 17 22 14 28 -4z m187 -21 c3 -5 1 -12 -5 -16 -5 -3 -10 1 -10
9 0 18 6 21 15 7z m-185 -11 c0 -5 -2 -10 -4 -10 -3 0 -8 5 -11 10 -3 6 -1 10
4 10 6 0 11 -4 11 -10z"/>
<path d="M1140 1320 c-12 -7 -12 -10 2 -15 9 -4 25 -5 35 -3 17 4 16 5 -3 15
-12 7 -26 8 -34 3z"/>
<path d="M418 1233 c6 -2 18 -2 25 0 6 3 1 5 -13 5 -14 0 -19 -2 -12 -5z"/>
<path d="M1432 1223 c-15 -28 -15 -33 2 -33 7 0 16 -10 19 -22 2 -13 8 -30 11
-40 5 -12 2 -16 -11 -15 -21 2 -32 -48 -14 -66 17 -17 13 -44 -7 -59 -27 -19
-40 -48 -48 -105 -10 -79 35 -134 92 -113 52 20 74 -39 54 -140 -5 -25 -11
-67 -14 -94 l-6 -49 31 42 c23 32 34 63 44 124 20 123 8 328 -19 326 -10 -1
-26 21 -26 35 0 5 7 3 15 -4 20 -16 19 -11 -6 52 -22 57 -78 148 -90 148 -4 0
-9 8 -11 18 -3 15 -5 14 -16 -5z m86 -155 c17 -17 15 -28 -6 -28 -24 0 -32 8
-25 26 6 17 15 18 31 2z"/>
<path d="M305 1030 c-25 -74 -47 -244 -31 -229 4 4 7 26 8 49 0 23 6 47 13 53
8 7 10 28 7 56 -3 30 -2 42 6 37 15 -9 28 19 35 72 8 66 -9 49 -38 -38z"/>
<path d="M905 959 c-17 -6 -16 -8 8 -8 16 -1 37 -6 48 -11 11 -6 19 -7 19 -1
0 14 -53 29 -75 20z"/>
<path d="M1008 918 c-8 -5 2 -8 26 -8 22 0 36 3 32 7 -10 10 -43 11 -58 1z"/>
<path d="M310 851 c5 -19 4 -33 -3 -41 -9 -8 -8 -10 6 -5 12 5 17 2 17 -9 0
-9 5 -16 11 -16 6 0 9 6 6 13 -2 6 -10 29 -18 50 -15 43 -31 50 -19 8z"/>
<path d="M271 755 c-1 -37 9 -53 32 -49 9 1 17 -4 17 -13 0 -10 -7 -13 -22 -8
-20 5 -19 3 7 -19 31 -27 55 -33 55 -15 0 5 -4 8 -8 5 -4 -2 -14 0 -22 5 -12
7 -12 11 -2 17 7 5 12 13 11 18 -5 26 1 35 15 22 10 -10 11 -15 2 -21 -7 -5
-3 -7 9 -4 13 2 31 -9 52 -31 19 -20 39 -32 47 -29 8 3 20 -1 26 -9 7 -8 17
-14 23 -14 7 0 7 4 -1 12 -17 17 -15 25 8 31 11 3 20 11 20 17 0 10 -4 9 -15
0 -13 -11 -23 -9 -54 8 -21 12 -46 22 -55 22 -9 0 -16 5 -16 10 0 6 -9 10 -20
10 -11 0 -20 5 -20 10 0 6 -9 10 -20 10 -12 0 -24 9 -30 23 -8 21 -9 20 -16
-13 l-8 -35 -7 35 c-6 34 -6 34 -8 5z"/>
<path d="M592 764 c10 -10 20 -15 24 -12 3 4 -5 12 -18 18 -22 12 -22 12 -6
-6z"/>
<path d="M555 650 c3 -5 11 -10 16 -10 6 0 7 5 4 10 -3 6 -11 10 -16 10 -6 0
-7 -4 -4 -10z"/>
<path d="M596 616 c21 -15 30 -14 19 3 -3 6 -14 11 -23 11 -13 0 -13 -2 4 -14z"/>
<path d="M369 603 c-38 -45 -38 -47 -21 -84 24 -50 41 -69 58 -62 10 4 35 -15
71 -52 31 -32 54 -51 50 -43 -3 9 -1 20 4 25 5 5 13 24 18 41 8 26 5 37 -14
64 -14 18 -34 53 -46 77 -17 34 -24 40 -29 27 -5 -16 -8 -16 -32 3 -32 26 -41
26 -59 4z"/>
<path d="M770 530 c-9 -6 -10 -10 -3 -10 6 0 15 5 18 10 8 12 4 12 -15 0z"/>
<path d="M646 416 c3 -8 -8 -22 -28 -34 -24 -16 -28 -22 -15 -22 11 0 32 9 48
21 25 18 27 22 15 35 -18 18 -27 18 -20 0z"/>
<path d="M1209 216 c-9 -9 -65 -19 -124 -22 -35 -2 -59 -7 -58 -13 2 -7 -36
-9 -117 -5 -78 4 -120 3 -120 -4 0 -24 234 -28 318 -6 64 17 144 52 121 53 -9
1 -18 -1 -20 -3z"/>
</g>
</svg>
